<?xml version="1.0" encoding="UTF-8" standalone="no"?>
<svg
   xmlns:dc="http://purl.org/dc/elements/1.1/"
   xmlns:cc="http://creativecommons.org/ns#"
   xmlns:rdf="http://www.w3.org/1999/02/22-rdf-syntax-ns#"
   xmlns:svg="http://www.w3.org/2000/svg"
   xmlns="http://www.w3.org/2000/svg"
   xmlns:sodipodi="http://sodipodi.sourceforge.net/DTD/sodipodi-0.dtd"
   xmlns:inkscape="http://www.inkscape.org/namespaces/inkscape"
   viewBox="0 0 32 32"
   version="1.1"
   id="svg827"
   sodipodi:docname="facebook_icon.svg"
   inkscape:version="0.92.4 (5da689c313, 2019-01-14)">
  <metadata
     id="metadata833">
    <rdf:RDF>
      <cc:Work
         rdf:about="">
        <dc:format>image/svg+xml</dc:format>
        <dc:type
           rdf:resource="http://purl.org/dc/dcmitype/StillImage" />
        <dc:title />
      </cc:Work>
    </rdf:RDF>
  </metadata>
  <defs
     id="defs831" />
  <sodipodi:namedview
     pagecolor="#ffffff"
     bordercolor="#666666"
     borderopacity="1"
     objecttolerance="10"
     gridtolerance="10"
     guidetolerance="10"
     inkscape:pageopacity="0"
     inkscape:pageshadow="2"
     inkscape:window-width="1366"
     inkscape:window-height="705"
     id="namedview829"
     showgrid="false"
     inkscape:zoom="16.75"
     inkscape:cx="6.2985075"
     inkscape:cy="15.761194"
     inkscape:window-x="-8"
     inkscape:window-y="-8"
     inkscape:window-maximized="1"
     inkscape:current-layer="svg827" />
  <path
     style="color:#000000;line-height:normal;font-family:'Bitstream Vera Sans';-inkscape-font-specification:'Bitstream Vera Sans';text-indent:0;text-align:start;text-transform:none;overflow:visible;stroke-width:1.4491173;fill:#fffffa;fill-opacity:1"
     d="m 3.0597015,0.04477612 c -1.5824939,0 -2.8955224,1.31548958 -2.8955224,2.90094978 V 29.054274 c 0,1.585461 1.3130285,2.90095 2.8955224,2.90095 H 29.119403 c 1.582494,0 2.895522,-1.315489 2.895522,-2.90095 V 2.9457259 c 0,-1.5854602 -1.313028,-2.90094978 -2.895522,-2.90094978 z m 0,2.90094978 H 29.119403 V 29.054274 h -7.510262 v -9.790706 h 3.755132 l 0.542909,-4.351424 h -4.298041 v -2.810296 c 0,-1.267714 0.312355,-2.1303841 2.1264,-2.1303841 h 2.352612 V 6.0279845 c -0.40103,-0.053663 -1.794862,-0.1359814 -3.39319,-0.1359814 -3.335642,0 -5.610075,2.0099952 -5.610075,5.7565729 v 3.263568 h -3.800373 v 4.351424 h 3.800373 v 9.790706 H 3.0597015 Z"
     overflow="visible"
     id="path825"
     inkscape:connector-curvature="0" />
  <path
     style="opacity:0;fill:#000000;fill-opacity:1;stroke:#4d4d4d;stroke-width:0.05970149;stroke-opacity:0"
     d="M 3.0567164,15.982089 V 2.9373131 H 16.071642 29.086567 V 15.982089 29.026865 h -3.731343 -3.731343 v -4.865671 -4.865672 h 1.880597 c 1.034328,0 1.880674,-0.02015 1.880769,-0.04478 2.99e-4,-0.07339 0.473177,-3.906225 0.511933,-4.149254 l 0.0357,-0.22388 h -2.159113 -2.159112 l 0.02271,-1.805971 c 0.02518,-2.002003 0.05067,-2.155611 0.421885,-2.542322 0.444406,-0.462957 0.857134,-0.5472297 2.680067,-0.5472297 h 1.36217 V 8.0154634 c 0,-1.0816442 -0.02286,-1.9807547 -0.0508,-1.9980234 C 26.022747,6.000171 25.254856,5.954577 24.344266,5.9161186 22.456693,5.8363986 21.674364,5.8848256 20.811817,6.1347819 19.079183,6.6368795 17.95346,7.730541 17.382308,9.4666134 17.13758,10.21049 17.087058,10.796222 17.086804,12.892537 l -2.4e-4,1.985075 h -1.910448 -1.910447 v 2.208955 2.208955 h 1.910447 1.910448 v 4.865672 4.865671 H 10.071642 3.0567164 Z"
     id="path866"
     inkscape:connector-curvature="0" />
  <path
     style="opacity:0;fill:#000000;fill-opacity:1;stroke:#4d4d4d;stroke-width:0.05970149;stroke-opacity:0"
     d="M 2.490159,31.882076 C 1.7510285,31.741127 0.89641869,31.104317 0.53525084,30.425381 0.16810549,29.735209 0.19097742,30.696763 0.19175337,15.984471 0.19251467,1.5498362 0.17608977,2.3319827 0.49269564,1.653731 0.67402125,1.2652847 1.3846879,0.55461797 1.7731343,0.37329236 2.451353,0.05670193 1.6715697,0.07311138 16.074024,0.07235008 c 11.852712,-6.2652e-4 13.446063,0.0098912 13.756725,0.09080837 1.063649,0.27704551 1.921268,1.19392385 2.116487,2.26273135 0.04523,0.2476346 0.06444,4.3442526 0.06382,13.6119402 -9.73e-4,14.617439 0.02453,13.63578 -0.373745,14.384789 -0.38187,0.718154 -1.205364,1.321411 -2.006656,1.46999 -0.427102,0.07919 -26.7234818,0.06899 -27.140498,-0.01053 z M 17.086567,24.161194 V 19.235821 H 15.20597 13.325373 v -2.149254 -2.149254 h 1.874487 1.874488 l 0.02852,-2.164179 c 0.02475,-1.878496 0.04432,-2.235107 0.148226,-2.701493 0.478362,-2.1471864 1.729691,-3.4531523 3.819096,-3.9858491 0.487193,-0.1242103 0.653313,-0.1335134 2.374586,-0.1329817 1.017911,3.164e-4 2.032454,0.022641 2.254541,0.049615 l 0.403795,0.049043 -0.01573,1.9503856 -0.01573,1.9503851 -1.611941,0.030359 c -1.532899,0.02887 -1.62733,0.037291 -1.925807,0.1717181 -0.342274,0.154152 -0.613972,0.424506 -0.774123,0.770294 -0.08872,0.191563 -0.105431,0.47902 -0.123067,2.117181 l -0.02041,1.895522 h 2.123194 c 1.657474,0 2.12372,0.01637 2.125592,0.07463 0.0013,0.04105 -0.112209,1.008209 -0.252285,2.149254 l -0.254684,2.074627 h -1.867118 -1.867117 v 4.925821 4.925822 l 3.746268,-0.01537 3.746269,-0.01537 0.01506,-13.059701 0.01506,-13.0597019 H 16.101627 3.0567164 V 16.01194 29.086567 h 7.0149256 7.014925 z"
     id="path868"
     inkscape:connector-curvature="0" />
  <path
     style="opacity:0;fill:#000000;fill-opacity:1;stroke:#4d4d4d;stroke-width:0.05970149;stroke-opacity:0"
     d="M 2.490159,31.882076 C 1.7510285,31.741127 0.89641869,31.104317 0.53525084,30.425381 0.16810549,29.735209 0.19097742,30.696763 0.19175337,15.984471 0.19251467,1.5498362 0.17608977,2.3319827 0.49269564,1.653731 0.67402125,1.2652847 1.3846879,0.55461797 1.7731343,0.37329236 2.451353,0.05670193 1.6715697,0.07311138 16.074024,0.07235008 c 11.852712,-6.2652e-4 13.446063,0.0098912 13.756725,0.09080837 1.063649,0.27704551 1.921268,1.19392385 2.116487,2.26273135 0.04523,0.2476346 0.06444,4.3442526 0.06382,13.6119402 -9.73e-4,14.617439 0.02453,13.63578 -0.373745,14.384789 -0.38187,0.718154 -1.205364,1.321411 -2.006656,1.46999 -0.427102,0.07919 -26.7234818,0.06899 -27.140498,-0.01053 z M 17.086567,24.161194 V 19.235821 H 15.20597 13.325373 v -2.149254 -2.149254 h 1.874487 1.874488 l 0.02852,-2.164179 c 0.02475,-1.878496 0.04432,-2.235107 0.148226,-2.701493 0.478362,-2.1471864 1.729691,-3.4531523 3.819096,-3.9858491 0.487193,-0.1242103 0.653313,-0.1335134 2.374586,-0.1329817 1.017911,3.164e-4 2.032454,0.022641 2.254541,0.049615 l 0.403795,0.049043 -0.01573,1.9503856 -0.01573,1.9503851 -1.611941,0.030359 c -1.532899,0.02887 -1.62733,0.037291 -1.925807,0.1717181 -0.342274,0.154152 -0.613972,0.424506 -0.774123,0.770294 -0.08872,0.191563 -0.105431,0.47902 -0.123067,2.117181 l -0.02041,1.895522 h 2.123194 c 1.657474,0 2.12372,0.01637 2.125592,0.07463 0.0013,0.04105 -0.112209,1.008209 -0.252285,2.149254 l -0.254684,2.074627 h -1.867118 -1.867117 v 4.925821 4.925822 l 3.746268,-0.01537 3.746269,-0.01537 0.01506,-13.059701 0.01506,-13.0597019 H 16.101627 3.0567164 V 16.01194 29.086567 h 7.0149256 7.014925 z"
     id="path870"
     inkscape:connector-curvature="0" />
  <path
     style="opacity:0;fill:#000000;fill-opacity:1;stroke:#4d4d4d;stroke-width:0.05970149;stroke-opacity:0"
     d="M 2.490159,31.882076 C 1.7510285,31.741127 0.89641869,31.104317 0.53525084,30.425381 0.16810549,29.735209 0.19097742,30.696763 0.19175337,15.984471 0.19251467,1.5498362 0.17608977,2.3319827 0.49269564,1.653731 0.67402125,1.2652847 1.3846879,0.55461797 1.7731343,0.37329236 2.451353,0.05670193 1.6715697,0.07311138 16.074024,0.07235008 c 11.852712,-6.2652e-4 13.446063,0.0098912 13.756725,0.09080837 1.063649,0.27704551 1.921268,1.19392385 2.116487,2.26273135 0.04523,0.2476346 0.06444,4.3442526 0.06382,13.6119402 -9.73e-4,14.617439 0.02453,13.63578 -0.373745,14.384789 -0.38187,0.718154 -1.205364,1.321411 -2.006656,1.46999 -0.427102,0.07919 -26.7234818,0.06899 -27.140498,-0.01053 z M 17.086567,24.161194 V 19.235821 H 15.20597 13.325373 v -2.149254 -2.149254 h 1.874487 1.874488 l 0.02852,-2.164179 c 0.02475,-1.878496 0.04432,-2.235107 0.148226,-2.701493 0.478362,-2.1471864 1.729691,-3.4531523 3.819096,-3.9858491 0.487193,-0.1242103 0.653313,-0.1335134 2.374586,-0.1329817 1.017911,3.164e-4 2.032454,0.022641 2.254541,0.049615 l 0.403795,0.049043 -0.01573,1.9503856 -0.01573,1.9503851 -1.611941,0.030359 c -1.532899,0.02887 -1.62733,0.037291 -1.925807,0.1717181 -0.342274,0.154152 -0.613972,0.424506 -0.774123,0.770294 -0.08872,0.191563 -0.105431,0.47902 -0.123067,2.117181 l -0.02041,1.895522 h 2.123194 c 1.657474,0 2.12372,0.01637 2.125592,0.07463 0.0013,0.04105 -0.112209,1.008209 -0.252285,2.149254 l -0.254684,2.074627 h -1.867118 -1.867117 v 4.925821 4.925822 l 3.746268,-0.01537 3.746269,-0.01537 0.01506,-13.059701 0.01506,-13.0597019 H 16.101627 3.0567164 V 16.01194 29.086567 h 7.0149256 7.014925 z"
     id="path872"
     inkscape:connector-curvature="0" />
  <path
     style="opacity:0;fill:#000000;fill-opacity:1;stroke:#4d4d4d;stroke-width:0.05970149;stroke-opacity:0"
     d="M 2.490159,31.882076 C 1.7510285,31.741127 0.89641869,31.104317 0.53525084,30.425381 0.16810549,29.735209 0.19097742,30.696763 0.19175337,15.984471 0.19251467,1.5498362 0.17608977,2.3319827 0.49269564,1.653731 0.67402125,1.2652847 1.3846879,0.55461797 1.7731343,0.37329236 2.451353,0.05670193 1.6715697,0.07311138 16.074024,0.07235008 c 11.852712,-6.2652e-4 13.446063,0.0098912 13.756725,0.09080837 1.063649,0.27704551 1.921268,1.19392385 2.116487,2.26273135 0.04523,0.2476346 0.06444,4.3442526 0.06382,13.6119402 -9.73e-4,14.617439 0.02453,13.63578 -0.373745,14.384789 -0.38187,0.718154 -1.205364,1.321411 -2.006656,1.46999 -0.427102,0.07919 -26.7234818,0.06899 -27.140498,-0.01053 z M 17.086567,24.161194 V 19.235821 H 15.20597 13.325373 v -2.149254 -2.149254 h 1.874487 1.874488 l 0.02852,-2.164179 c 0.02475,-1.878496 0.04432,-2.235107 0.148226,-2.701493 0.478362,-2.1471864 1.729691,-3.4531523 3.819096,-3.9858491 0.487193,-0.1242103 0.653313,-0.1335134 2.374586,-0.1329817 1.017911,3.164e-4 2.032454,0.022641 2.254541,0.049615 l 0.403795,0.049043 -0.01573,1.9503856 -0.01573,1.9503851 -1.611941,0.030359 c -1.532899,0.02887 -1.62733,0.037291 -1.925807,0.1717181 -0.342274,0.154152 -0.613972,0.424506 -0.774123,0.770294 -0.08872,0.191563 -0.105431,0.47902 -0.123067,2.117181 l -0.02041,1.895522 h 2.123194 c 1.657474,0 2.12372,0.01637 2.125592,0.07463 0.0013,0.04105 -0.112209,1.008209 -0.252285,2.149254 l -0.254684,2.074627 h -1.867118 -1.867117 v 4.925821 4.925822 l 3.746268,-0.01537 3.746269,-0.01537 0.01506,-13.059701 0.01506,-13.0597019 H 16.101627 3.0567164 V 16.01194 29.086567 h 7.0149256 7.014925 z"
     id="path874"
     inkscape:connector-curvature="0" />
  <path
     style="opacity:0;fill:#000000;fill-opacity:1;stroke:#4d4d4d;stroke-width:0.05970149;stroke-opacity:0"
     d="M 2.490159,31.882076 C 1.7510285,31.741127 0.89641869,31.104317 0.53525084,30.425381 0.16810549,29.735209 0.19097742,30.696763 0.19175337,15.984471 0.19251467,1.5498362 0.17608977,2.3319827 0.49269564,1.653731 0.67402125,1.2652847 1.3846879,0.55461797 1.7731343,0.37329236 2.451353,0.05670193 1.6715697,0.07311138 16.074024,0.07235008 c 11.852712,-6.2652e-4 13.446063,0.0098912 13.756725,0.09080837 1.063649,0.27704551 1.921268,1.19392385 2.116487,2.26273135 0.04523,0.2476346 0.06444,4.3442526 0.06382,13.6119402 -9.73e-4,14.617439 0.02453,13.63578 -0.373745,14.384789 -0.38187,0.718154 -1.205364,1.321411 -2.006656,1.46999 -0.427102,0.07919 -26.7234818,0.06899 -27.140498,-0.01053 z M 17.086567,24.161194 V 19.235821 H 15.20597 13.325373 v -2.149254 -2.149254 h 1.874487 1.874488 l 0.02852,-2.164179 c 0.02475,-1.878496 0.04432,-2.235107 0.148226,-2.701493 0.478362,-2.1471864 1.729691,-3.4531523 3.819096,-3.9858491 0.487193,-0.1242103 0.653313,-0.1335134 2.374586,-0.1329817 1.017911,3.164e-4 2.032454,0.022641 2.254541,0.049615 l 0.403795,0.049043 -0.01573,1.9503856 -0.01573,1.9503851 -1.611941,0.030359 c -1.532899,0.02887 -1.62733,0.037291 -1.925807,0.1717181 -0.342274,0.154152 -0.613972,0.424506 -0.774123,0.770294 -0.08872,0.191563 -0.105431,0.47902 -0.123067,2.117181 l -0.02041,1.895522 h 2.123194 c 1.657474,0 2.12372,0.01637 2.125592,0.07463 0.0013,0.04105 -0.112209,1.008209 -0.252285,2.149254 l -0.254684,2.074627 h -1.867118 -1.867117 v 4.925821 4.925822 l 3.746268,-0.01537 3.746269,-0.01537 0.01506,-13.059701 0.01506,-13.0597019 H 16.101627 3.0567164 V 16.01194 29.086567 h 7.0149256 7.014925 z"
     id="path876"
     inkscape:connector-curvature="0" />
  <path
     style="opacity:0;fill:#000000;fill-opacity:1;stroke:#4d4d4d;stroke-width:0.05970149;stroke-opacity:0"
     d="M 2.490159,31.882076 C 1.7510285,31.741127 0.89641869,31.104317 0.53525084,30.425381 0.16810549,29.735209 0.19097742,30.696763 0.19175337,15.984471 0.19251467,1.5498362 0.17608977,2.3319827 0.49269564,1.653731 0.67402125,1.2652847 1.3846879,0.55461797 1.7731343,0.37329236 2.451353,0.05670193 1.6715697,0.07311138 16.074024,0.07235008 c 11.852712,-6.2652e-4 13.446063,0.0098912 13.756725,0.09080837 1.063649,0.27704551 1.921268,1.19392385 2.116487,2.26273135 0.04523,0.2476346 0.06444,4.3442526 0.06382,13.6119402 -9.73e-4,14.617439 0.02453,13.63578 -0.373745,14.384789 -0.38187,0.718154 -1.205364,1.321411 -2.006656,1.46999 -0.427102,0.07919 -26.7234818,0.06899 -27.140498,-0.01053 z M 17.086567,24.161194 V 19.235821 H 15.20597 13.325373 v -2.149254 -2.149254 h 1.874487 1.874488 l 0.02852,-2.164179 c 0.02475,-1.878496 0.04432,-2.235107 0.148226,-2.701493 0.478362,-2.1471864 1.729691,-3.4531523 3.819096,-3.9858491 0.487193,-0.1242103 0.653313,-0.1335134 2.374586,-0.1329817 1.017911,3.164e-4 2.032454,0.022641 2.254541,0.049615 l 0.403795,0.049043 -0.01573,1.9503856 -0.01573,1.9503851 -1.611941,0.030359 c -1.532899,0.02887 -1.62733,0.037291 -1.925807,0.1717181 -0.342274,0.154152 -0.613972,0.424506 -0.774123,0.770294 -0.08872,0.191563 -0.105431,0.47902 -0.123067,2.117181 l -0.02041,1.895522 h 2.123194 c 1.657474,0 2.12372,0.01637 2.125592,0.07463 0.0013,0.04105 -0.112209,1.008209 -0.252285,2.149254 l -0.254684,2.074627 h -1.867118 -1.867117 v 4.925821 4.925822 l 3.746268,-0.01537 3.746269,-0.01537 0.01506,-13.059701 0.01506,-13.0597019 H 16.101627 3.0567164 V 16.01194 29.086567 h 7.0149256 7.014925 z"
     id="path878"
     inkscape:connector-curvature="0" />
  <path
     style="opacity:0;fill:#000000;fill-opacity:1;stroke:#4d4d4d;stroke-width:0.05970149;stroke-opacity:0"
     d="M 2.490159,31.882076 C 1.7510285,31.741127 0.89641869,31.104317 0.53525084,30.425381 0.16810549,29.735209 0.19097742,30.696763 0.19175337,15.984471 0.19251467,1.5498362 0.17608977,2.3319827 0.49269564,1.653731 0.67402125,1.2652847 1.3846879,0.55461797 1.7731343,0.37329236 2.451353,0.05670193 1.6715697,0.07311138 16.074024,0.07235008 c 11.852712,-6.2652e-4 13.446063,0.0098912 13.756725,0.09080837 1.063649,0.27704551 1.921268,1.19392385 2.116487,2.26273135 0.04523,0.2476346 0.06444,4.3442526 0.06382,13.6119402 -9.73e-4,14.617439 0.02453,13.63578 -0.373745,14.384789 -0.38187,0.718154 -1.205364,1.321411 -2.006656,1.46999 -0.427102,0.07919 -26.7234818,0.06899 -27.140498,-0.01053 z M 17.086567,24.161194 V 19.235821 H 15.20597 13.325373 v -2.149254 -2.149254 h 1.874487 1.874488 l 0.02852,-2.164179 c 0.02475,-1.878496 0.04432,-2.235107 0.148226,-2.701493 0.478362,-2.1471864 1.729691,-3.4531523 3.819096,-3.9858491 0.487193,-0.1242103 0.653313,-0.1335134 2.374586,-0.1329817 1.017911,3.164e-4 2.032454,0.022641 2.254541,0.049615 l 0.403795,0.049043 -0.01573,1.9503856 -0.01573,1.9503851 -1.611941,0.030359 c -1.532899,0.02887 -1.62733,0.037291 -1.925807,0.1717181 -0.342274,0.154152 -0.613972,0.424506 -0.774123,0.770294 -0.08872,0.191563 -0.105431,0.47902 -0.123067,2.117181 l -0.02041,1.895522 h 2.123194 c 1.657474,0 2.12372,0.01637 2.125592,0.07463 0.0013,0.04105 -0.112209,1.008209 -0.252285,2.149254 l -0.254684,2.074627 h -1.867118 -1.867117 v 4.925821 4.925822 l 3.746268,-0.01537 3.746269,-0.01537 0.01506,-13.059701 0.01506,-13.0597019 H 16.101627 3.0567164 V 16.01194 29.086567 h 7.0149256 7.014925 z"
     id="path880"
     inkscape:connector-curvature="0" />
  <path
     style="opacity:0;fill:#000000;fill-opacity:1;stroke:#4d4d4d;stroke-width:0.05970149;stroke-opacity:0"
     d="M 2.490159,31.882076 C 1.7510285,31.741127 0.89641869,31.104317 0.53525084,30.425381 0.16810549,29.735209 0.19097742,30.696763 0.19175337,15.984471 0.19251467,1.5498362 0.17608977,2.3319827 0.49269564,1.653731 0.67402125,1.2652847 1.3846879,0.55461797 1.7731343,0.37329236 2.451353,0.05670193 1.6715697,0.07311138 16.074024,0.07235008 c 11.852712,-6.2652e-4 13.446063,0.0098912 13.756725,0.09080837 1.063649,0.27704551 1.921268,1.19392385 2.116487,2.26273135 0.04523,0.2476346 0.06444,4.3442526 0.06382,13.6119402 -9.73e-4,14.617439 0.02453,13.63578 -0.373745,14.384789 -0.38187,0.718154 -1.205364,1.321411 -2.006656,1.46999 -0.427102,0.07919 -26.7234818,0.06899 -27.140498,-0.01053 z M 17.086567,24.161194 V 19.235821 H 15.20597 13.325373 v -2.149254 -2.149254 h 1.874487 1.874488 l 0.02852,-2.164179 c 0.02475,-1.878496 0.04432,-2.235107 0.148226,-2.701493 0.478362,-2.1471864 1.729691,-3.4531523 3.819096,-3.9858491 0.487193,-0.1242103 0.653313,-0.1335134 2.374586,-0.1329817 1.017911,3.164e-4 2.032454,0.022641 2.254541,0.049615 l 0.403795,0.049043 -0.01573,1.9503856 -0.01573,1.9503851 -1.611941,0.030359 c -1.532899,0.02887 -1.62733,0.037291 -1.925807,0.1717181 -0.342274,0.154152 -0.613972,0.424506 -0.774123,0.770294 -0.08872,0.191563 -0.105431,0.47902 -0.123067,2.117181 l -0.02041,1.895522 h 2.123194 c 1.657474,0 2.12372,0.01637 2.125592,0.07463 0.0013,0.04105 -0.112209,1.008209 -0.252285,2.149254 l -0.254684,2.074627 h -1.867118 -1.867117 v 4.925821 4.925822 l 3.746268,-0.01537 3.746269,-0.01537 0.01506,-13.059701 0.01506,-13.0597019 H 16.101627 3.0567164 V 16.01194 29.086567 h 7.0149256 7.014925 z"
     id="path882"
     inkscape:connector-curvature="0" />
  <path
     style="opacity:0;fill:#000000;fill-opacity:1;stroke:#4d4d4d;stroke-width:0.05970149;stroke-opacity:0"
     d="M 2.490159,31.882076 C 1.7510285,31.741127 0.89641869,31.104317 0.53525084,30.425381 0.16810549,29.735209 0.19097742,30.696763 0.19175337,15.984471 0.19251467,1.5498362 0.17608977,2.3319827 0.49269564,1.653731 0.67402125,1.2652847 1.3846879,0.55461797 1.7731343,0.37329236 2.451353,0.05670193 1.6715697,0.07311138 16.074024,0.07235008 c 11.852712,-6.2652e-4 13.446063,0.0098912 13.756725,0.09080837 1.063649,0.27704551 1.921268,1.19392385 2.116487,2.26273135 0.04523,0.2476346 0.06444,4.3442526 0.06382,13.6119402 -9.73e-4,14.617439 0.02453,13.63578 -0.373745,14.384789 -0.38187,0.718154 -1.205364,1.321411 -2.006656,1.46999 -0.427102,0.07919 -26.7234818,0.06899 -27.140498,-0.01053 z M 17.086567,24.161194 V 19.235821 H 15.20597 13.325373 v -2.149254 -2.149254 h 1.874487 1.874488 l 0.02852,-2.164179 c 0.02475,-1.878496 0.04432,-2.235107 0.148226,-2.701493 0.478362,-2.1471864 1.729691,-3.4531523 3.819096,-3.9858491 0.487193,-0.1242103 0.653313,-0.1335134 2.374586,-0.1329817 1.017911,3.164e-4 2.032454,0.022641 2.254541,0.049615 l 0.403795,0.049043 -0.01573,1.9503856 -0.01573,1.9503851 -1.611941,0.030359 c -1.532899,0.02887 -1.62733,0.037291 -1.925807,0.1717181 -0.342274,0.154152 -0.613972,0.424506 -0.774123,0.770294 -0.08872,0.191563 -0.105431,0.47902 -0.123067,2.117181 l -0.02041,1.895522 h 2.123194 c 1.657474,0 2.12372,0.01637 2.125592,0.07463 0.0013,0.04105 -0.112209,1.008209 -0.252285,2.149254 l -0.254684,2.074627 h -1.867118 -1.867117 v 4.925821 4.925822 l 3.746268,-0.01537 3.746269,-0.01537 0.01506,-13.059701 0.01506,-13.0597019 H 16.101627 3.0567164 V 16.01194 29.086567 h 7.0149256 7.014925 z"
     id="path884"
     inkscape:connector-curvature="0" />
  <path
     style="opacity:0;fill:#000000;fill-opacity:1;stroke:#4d4d4d;stroke-width:0.05970149;stroke-opacity:0"
     d="M 2.490159,31.882076 C 1.7510285,31.741127 0.89641869,31.104317 0.53525084,30.425381 0.16810549,29.735209 0.19097742,30.696763 0.19175337,15.984471 0.19251467,1.5498362 0.17608977,2.3319827 0.49269564,1.653731 0.67402125,1.2652847 1.3846879,0.55461797 1.7731343,0.37329236 2.451353,0.05670193 1.6715697,0.07311138 16.074024,0.07235008 c 11.852712,-6.2652e-4 13.446063,0.0098912 13.756725,0.09080837 1.063649,0.27704551 1.921268,1.19392385 2.116487,2.26273135 0.04523,0.2476346 0.06444,4.3442526 0.06382,13.6119402 -9.73e-4,14.617439 0.02453,13.63578 -0.373745,14.384789 -0.38187,0.718154 -1.205364,1.321411 -2.006656,1.46999 -0.427102,0.07919 -26.7234818,0.06899 -27.140498,-0.01053 z M 17.086567,24.161194 V 19.235821 H 15.20597 13.325373 v -2.149254 -2.149254 h 1.874487 1.874488 l 0.02852,-2.164179 c 0.02475,-1.878496 0.04432,-2.235107 0.148226,-2.701493 0.478362,-2.1471864 1.729691,-3.4531523 3.819096,-3.9858491 0.487193,-0.1242103 0.653313,-0.1335134 2.374586,-0.1329817 1.017911,3.164e-4 2.032454,0.022641 2.254541,0.049615 l 0.403795,0.049043 -0.01573,1.9503856 -0.01573,1.9503851 -1.611941,0.030359 c -1.532899,0.02887 -1.62733,0.037291 -1.925807,0.1717181 -0.342274,0.154152 -0.613972,0.424506 -0.774123,0.770294 -0.08872,0.191563 -0.105431,0.47902 -0.123067,2.117181 l -0.02041,1.895522 h 2.123194 c 1.657474,0 2.12372,0.01637 2.125592,0.07463 0.0013,0.04105 -0.112209,1.008209 -0.252285,2.149254 l -0.254684,2.074627 h -1.867118 -1.867117 v 4.925821 4.925822 l 3.746268,-0.01537 3.746269,-0.01537 0.01506,-13.059701 0.01506,-13.0597019 H 16.101627 3.0567164 V 16.01194 29.086567 h 7.0149256 7.014925 z"
     id="path886"
     inkscape:connector-curvature="0" />
  <path
     style="opacity:0;fill:#000000;fill-opacity:1;stroke:#4d4d4d;stroke-width:0.05970149;stroke-opacity:0"
     d="M 2.490159,31.882076 C 1.7510285,31.741127 0.89641869,31.104317 0.53525084,30.425381 0.16810549,29.735209 0.19097742,30.696763 0.19175337,15.984471 0.19251467,1.5498362 0.17608977,2.3319827 0.49269564,1.653731 0.67402125,1.2652847 1.3846879,0.55461797 1.7731343,0.37329236 2.451353,0.05670193 1.6715697,0.07311138 16.074024,0.07235008 c 11.852712,-6.2652e-4 13.446063,0.0098912 13.756725,0.09080837 1.063649,0.27704551 1.921268,1.19392385 2.116487,2.26273135 0.04523,0.2476346 0.06444,4.3442526 0.06382,13.6119402 -9.73e-4,14.617439 0.02453,13.63578 -0.373745,14.384789 -0.38187,0.718154 -1.205364,1.321411 -2.006656,1.46999 -0.427102,0.07919 -26.7234818,0.06899 -27.140498,-0.01053 z M 17.086567,24.161194 V 19.235821 H 15.20597 13.325373 v -2.149254 -2.149254 h 1.874487 1.874488 l 0.02852,-2.164179 c 0.02475,-1.878496 0.04432,-2.235107 0.148226,-2.701493 0.478362,-2.1471864 1.729691,-3.4531523 3.819096,-3.9858491 0.487193,-0.1242103 0.653313,-0.1335134 2.374586,-0.1329817 1.017911,3.164e-4 2.032454,0.022641 2.254541,0.049615 l 0.403795,0.049043 -0.01573,1.9503856 -0.01573,1.9503851 -1.611941,0.030359 c -1.532899,0.02887 -1.62733,0.037291 -1.925807,0.1717181 -0.342274,0.154152 -0.613972,0.424506 -0.774123,0.770294 -0.08872,0.191563 -0.105431,0.47902 -0.123067,2.117181 l -0.02041,1.895522 h 2.123194 c 1.657474,0 2.12372,0.01637 2.125592,0.07463 0.0013,0.04105 -0.112209,1.008209 -0.252285,2.149254 l -0.254684,2.074627 h -1.867118 -1.867117 v 4.925821 4.925822 l 3.746268,-0.01537 3.746269,-0.01537 0.01506,-13.059701 0.01506,-13.0597019 H 16.101627 3.0567164 V 16.01194 29.086567 h 7.0149256 7.014925 z"
     id="path888"
     inkscape:connector-curvature="0" />
  <path
     style="opacity:0;fill:#000000;fill-opacity:1;stroke:#4d4d4d;stroke-width:0.05970149;stroke-opacity:0"
     d="M 2.490159,31.882076 C 1.7510285,31.741127 0.89641869,31.104317 0.53525084,30.425381 0.16810549,29.735209 0.19097742,30.696763 0.19175337,15.984471 0.19251467,1.5498362 0.17608977,2.3319827 0.49269564,1.653731 0.67402125,1.2652847 1.3846879,0.55461797 1.7731343,0.37329236 2.451353,0.05670193 1.6715697,0.07311138 16.074024,0.07235008 c 11.852712,-6.2652e-4 13.446063,0.0098912 13.756725,0.09080837 1.063649,0.27704551 1.921268,1.19392385 2.116487,2.26273135 0.04523,0.2476346 0.06444,4.3442526 0.06382,13.6119402 -9.73e-4,14.617439 0.02453,13.63578 -0.373745,14.384789 -0.38187,0.718154 -1.205364,1.321411 -2.006656,1.46999 -0.427102,0.07919 -26.7234818,0.06899 -27.140498,-0.01053 z M 17.086567,24.161194 V 19.235821 H 15.20597 13.325373 v -2.149254 -2.149254 h 1.874487 1.874488 l 0.02852,-2.164179 c 0.02475,-1.878496 0.04432,-2.235107 0.148226,-2.701493 0.478362,-2.1471864 1.729691,-3.4531523 3.819096,-3.9858491 0.487193,-0.1242103 0.653313,-0.1335134 2.374586,-0.1329817 1.017911,3.164e-4 2.032454,0.022641 2.254541,0.049615 l 0.403795,0.049043 -0.01573,1.9503856 -0.01573,1.9503851 -1.611941,0.030359 c -1.532899,0.02887 -1.62733,0.037291 -1.925807,0.1717181 -0.342274,0.154152 -0.613972,0.424506 -0.774123,0.770294 -0.08872,0.191563 -0.105431,0.47902 -0.123067,2.117181 l -0.02041,1.895522 h 2.123194 c 1.657474,0 2.12372,0.01637 2.125592,0.07463 0.0013,0.04105 -0.112209,1.008209 -0.252285,2.149254 l -0.254684,2.074627 h -1.867118 -1.867117 v 4.925821 4.925822 l 3.746268,-0.01537 3.746269,-0.01537 0.01506,-13.059701 0.01506,-13.0597019 H 16.101627 3.0567164 V 16.01194 29.086567 h 7.0149256 7.014925 z"
     id="path890"
     inkscape:connector-curvature="0" />
  <path
     style="opacity:0;fill:#000000;fill-opacity:1;stroke:#4d4d4d;stroke-width:0.05970149;stroke-opacity:0"
     d="M 2.490159,31.882076 C 1.7510285,31.741127 0.89641869,31.104317 0.53525084,30.425381 0.16810549,29.735209 0.19097742,30.696763 0.19175337,15.984471 0.19251467,1.5498362 0.17608977,2.3319827 0.49269564,1.653731 0.67402125,1.2652847 1.3846879,0.55461797 1.7731343,0.37329236 2.451353,0.05670193 1.6715697,0.07311138 16.074024,0.07235008 c 11.852712,-6.2652e-4 13.446063,0.0098912 13.756725,0.09080837 1.063649,0.27704551 1.921268,1.19392385 2.116487,2.26273135 0.04523,0.2476346 0.06444,4.3442526 0.06382,13.6119402 -9.73e-4,14.617439 0.02453,13.63578 -0.373745,14.384789 -0.38187,0.718154 -1.205364,1.321411 -2.006656,1.46999 -0.427102,0.07919 -26.7234818,0.06899 -27.140498,-0.01053 z M 17.086567,24.161194 V 19.235821 H 15.20597 13.325373 v -2.149254 -2.149254 h 1.874487 1.874488 l 0.02852,-2.164179 c 0.02475,-1.878496 0.04432,-2.235107 0.148226,-2.701493 0.478362,-2.1471864 1.729691,-3.4531523 3.819096,-3.9858491 0.487193,-0.1242103 0.653313,-0.1335134 2.374586,-0.1329817 1.017911,3.164e-4 2.032454,0.022641 2.254541,0.049615 l 0.403795,0.049043 -0.01573,1.9503856 -0.01573,1.9503851 -1.611941,0.030359 c -1.532899,0.02887 -1.62733,0.037291 -1.925807,0.1717181 -0.342274,0.154152 -0.613972,0.424506 -0.774123,0.770294 -0.08872,0.191563 -0.105431,0.47902 -0.123067,2.117181 l -0.02041,1.895522 h 2.123194 c 1.657474,0 2.12372,0.01637 2.125592,0.07463 0.0013,0.04105 -0.112209,1.008209 -0.252285,2.149254 l -0.254684,2.074627 h -1.867118 -1.867117 v 4.925821 4.925822 l 3.746268,-0.01537 3.746269,-0.01537 0.01506,-13.059701 0.01506,-13.0597019 H 16.101627 3.0567164 V 16.01194 29.086567 h 7.0149256 7.014925 z"
     id="path892"
     inkscape:connector-curvature="0" />
  <path
     style="opacity:0;fill:#000000;fill-opacity:1;stroke:#4d4d4d;stroke-width:0.05970149;stroke-opacity:0"
     d="M 2.490159,31.882076 C 1.7510285,31.741127 0.89641869,31.104317 0.53525084,30.425381 0.16810549,29.735209 0.19097742,30.696763 0.19175337,15.984471 0.19251467,1.5498362 0.17608977,2.3319827 0.49269564,1.653731 0.67402125,1.2652847 1.3846879,0.55461797 1.7731343,0.37329236 2.451353,0.05670193 1.6715697,0.07311138 16.074024,0.07235008 c 11.852712,-6.2652e-4 13.446063,0.0098912 13.756725,0.09080837 1.063649,0.27704551 1.921268,1.19392385 2.116487,2.26273135 0.04523,0.2476346 0.06444,4.3442526 0.06382,13.6119402 -9.73e-4,14.617439 0.02453,13.63578 -0.373745,14.384789 -0.38187,0.718154 -1.205364,1.321411 -2.006656,1.46999 -0.427102,0.07919 -26.7234818,0.06899 -27.140498,-0.01053 z M 17.086567,24.161194 V 19.235821 H 15.20597 13.325373 v -2.149254 -2.149254 h 1.874487 1.874488 l 0.02852,-2.164179 c 0.02475,-1.878496 0.04432,-2.235107 0.148226,-2.701493 0.478362,-2.1471864 1.729691,-3.4531523 3.819096,-3.9858491 0.487193,-0.1242103 0.653313,-0.1335134 2.374586,-0.1329817 1.017911,3.164e-4 2.032454,0.022641 2.254541,0.049615 l 0.403795,0.049043 -0.01573,1.9503856 -0.01573,1.9503851 -1.611941,0.030359 c -1.532899,0.02887 -1.62733,0.037291 -1.925807,0.1717181 -0.342274,0.154152 -0.613972,0.424506 -0.774123,0.770294 -0.08872,0.191563 -0.105431,0.47902 -0.123067,2.117181 l -0.02041,1.895522 h 2.123194 c 1.657474,0 2.12372,0.01637 2.125592,0.07463 0.0013,0.04105 -0.112209,1.008209 -0.252285,2.149254 l -0.254684,2.074627 h -1.867118 -1.867117 v 4.925821 4.925822 l 3.746268,-0.01537 3.746269,-0.01537 0.01506,-13.059701 0.01506,-13.0597019 H 16.101627 3.0567164 V 16.01194 29.086567 h 7.0149256 7.014925 z"
     id="path894"
     inkscape:connector-curvature="0" />
  <path
     style="opacity:0;fill:#000000;fill-opacity:1;stroke:#4d4d4d;stroke-width:0.05970149;stroke-opacity:0"
     d="M 2.490159,31.882076 C 1.7510285,31.741127 0.89641869,31.104317 0.53525084,30.425381 0.16810549,29.735209 0.19097742,30.696763 0.19175337,15.984471 0.19251467,1.5498362 0.17608977,2.3319827 0.49269564,1.653731 0.67402125,1.2652847 1.3846879,0.55461797 1.7731343,0.37329236 2.451353,0.05670193 1.6715697,0.07311138 16.074024,0.07235008 c 11.852712,-6.2652e-4 13.446063,0.0098912 13.756725,0.09080837 1.063649,0.27704551 1.921268,1.19392385 2.116487,2.26273135 0.04523,0.2476346 0.06444,4.3442526 0.06382,13.6119402 -9.73e-4,14.617439 0.02453,13.63578 -0.373745,14.384789 -0.38187,0.718154 -1.205364,1.321411 -2.006656,1.46999 -0.427102,0.07919 -26.7234818,0.06899 -27.140498,-0.01053 z M 17.086567,24.161194 V 19.235821 H 15.20597 13.325373 v -2.149254 -2.149254 h 1.874487 1.874488 l 0.02852,-2.164179 c 0.02475,-1.878496 0.04432,-2.235107 0.148226,-2.701493 0.478362,-2.1471864 1.729691,-3.4531523 3.819096,-3.9858491 0.487193,-0.1242103 0.653313,-0.1335134 2.374586,-0.1329817 1.017911,3.164e-4 2.032454,0.022641 2.254541,0.049615 l 0.403795,0.049043 -0.01573,1.9503856 -0.01573,1.9503851 -1.611941,0.030359 c -1.532899,0.02887 -1.62733,0.037291 -1.925807,0.1717181 -0.342274,0.154152 -0.613972,0.424506 -0.774123,0.770294 -0.08872,0.191563 -0.105431,0.47902 -0.123067,2.117181 l -0.02041,1.895522 h 2.123194 c 1.657474,0 2.12372,0.01637 2.125592,0.07463 0.0013,0.04105 -0.112209,1.008209 -0.252285,2.149254 l -0.254684,2.074627 h -1.867118 -1.867117 v 4.925821 4.925822 l 3.746268,-0.01537 3.746269,-0.01537 0.01506,-13.059701 0.01506,-13.0597019 H 16.101627 3.0567164 V 16.01194 29.086567 h 7.0149256 7.014925 z"
     id="path896"
     inkscape:connector-curvature="0" />
  <path
     style="opacity:0;fill:#000000;fill-opacity:1;stroke:#4d4d4d;stroke-width:0.05970149;stroke-opacity:0"
     d="M 2.490159,31.882076 C 1.7510285,31.741127 0.89641869,31.104317 0.53525084,30.425381 0.16810549,29.735209 0.19097742,30.696763 0.19175337,15.984471 0.19251467,1.5498362 0.17608977,2.3319827 0.49269564,1.653731 0.67402125,1.2652847 1.3846879,0.55461797 1.7731343,0.37329236 2.451353,0.05670193 1.6715697,0.07311138 16.074024,0.07235008 c 11.852712,-6.2652e-4 13.446063,0.0098912 13.756725,0.09080837 1.063649,0.27704551 1.921268,1.19392385 2.116487,2.26273135 0.04523,0.2476346 0.06444,4.3442526 0.06382,13.6119402 -9.73e-4,14.617439 0.02453,13.63578 -0.373745,14.384789 -0.38187,0.718154 -1.205364,1.321411 -2.006656,1.46999 -0.427102,0.07919 -26.7234818,0.06899 -27.140498,-0.01053 z M 17.086567,24.161194 V 19.235821 H 15.20597 13.325373 v -2.149254 -2.149254 h 1.874487 1.874488 l 0.02852,-2.164179 c 0.02475,-1.878496 0.04432,-2.235107 0.148226,-2.701493 0.478362,-2.1471864 1.729691,-3.4531523 3.819096,-3.9858491 0.487193,-0.1242103 0.653313,-0.1335134 2.374586,-0.1329817 1.017911,3.164e-4 2.032454,0.022641 2.254541,0.049615 l 0.403795,0.049043 -0.01573,1.9503856 -0.01573,1.9503851 -1.611941,0.030359 c -1.532899,0.02887 -1.62733,0.037291 -1.925807,0.1717181 -0.342274,0.154152 -0.613972,0.424506 -0.774123,0.770294 -0.08872,0.191563 -0.105431,0.47902 -0.123067,2.117181 l -0.02041,1.895522 h 2.123194 c 1.657474,0 2.12372,0.01637 2.125592,0.07463 0.0013,0.04105 -0.112209,1.008209 -0.252285,2.149254 l -0.254684,2.074627 h -1.867118 -1.867117 v 4.925821 4.925822 l 3.746268,-0.01537 3.746269,-0.01537 0.01506,-13.059701 0.01506,-13.0597019 H 16.101627 3.0567164 V 16.01194 29.086567 h 7.0149256 7.014925 z"
     id="path898"
     inkscape:connector-curvature="0" />
  <path
     style="opacity:0;fill:#000000;fill-opacity:1;stroke:#4d4d4d;stroke-width:0.05970149;stroke-opacity:0"
     d="M 3.0567164,15.982089 V 2.9373131 H 16.071642 29.086567 V 15.982089 29.026865 h -3.731343 -3.731343 v -4.865671 -4.865672 h 1.880597 c 1.034328,0 1.880674,-0.02015 1.880769,-0.04478 2.99e-4,-0.07339 0.473177,-3.906225 0.511933,-4.149254 l 0.0357,-0.22388 h -2.159113 -2.159112 l 0.02271,-1.805971 c 0.02518,-2.002003 0.05067,-2.155611 0.421885,-2.542322 0.444406,-0.462957 0.857134,-0.5472297 2.680067,-0.5472297 h 1.36217 V 8.0154634 c 0,-1.0816442 -0.02286,-1.9807547 -0.0508,-1.9980234 C 26.022747,6.000171 25.254856,5.954577 24.344266,5.9161186 22.456693,5.8363986 21.674364,5.8848256 20.811817,6.1347819 19.079183,6.6368795 17.95346,7.730541 17.382308,9.4666134 17.13758,10.21049 17.087058,10.796222 17.086804,12.892537 l -2.4e-4,1.985075 h -1.910448 -1.910447 v 2.208955 2.208955 h 1.910447 1.910448 v 4.865672 4.865671 H 10.071642 3.0567164 Z"
     id="path900"
     inkscape:connector-curvature="0" />
  <path
     style="opacity:0;fill:#000000;fill-opacity:1;stroke:#4d4d4d;stroke-width:0.05970149;stroke-opacity:0"
     d="M 3.0567164,15.982089 V 2.9373131 H 16.071642 29.086567 V 15.982089 29.026865 h -3.731343 -3.731343 v -4.865671 -4.865672 h 1.880597 c 1.034328,0 1.880674,-0.02015 1.880769,-0.04478 2.99e-4,-0.07339 0.473177,-3.906225 0.511933,-4.149254 l 0.0357,-0.22388 h -2.159113 -2.159112 l 0.02271,-1.805971 c 0.02518,-2.002003 0.05067,-2.155611 0.421885,-2.542322 0.444406,-0.462957 0.857134,-0.5472297 2.680067,-0.5472297 h 1.36217 V 8.0154634 c 0,-1.0816442 -0.02286,-1.9807547 -0.0508,-1.9980234 C 26.022747,6.000171 25.254856,5.954577 24.344266,5.9161186 22.456693,5.8363986 21.674364,5.8848256 20.811817,6.1347819 19.079183,6.6368795 17.95346,7.730541 17.382308,9.4666134 17.13758,10.21049 17.087058,10.796222 17.086804,12.892537 l -2.4e-4,1.985075 h -1.910448 -1.910447 v 2.208955 2.208955 h 1.910447 1.910448 v 4.865672 4.865671 H 10.071642 3.0567164 Z"
     id="path902"
     inkscape:connector-curvature="0" />
  <path
     style="opacity:0;fill:#000000;fill-opacity:1;stroke:#4d4d4d;stroke-width:0.05970149;stroke-opacity:0"
     d="M 3.0567164,15.982089 V 2.9373131 H 16.071642 29.086567 V 15.982089 29.026865 h -3.731343 -3.731343 v -4.865671 -4.865672 h 1.880597 c 1.034328,0 1.880674,-0.02015 1.880769,-0.04478 2.99e-4,-0.07339 0.473177,-3.906225 0.511933,-4.149254 l 0.0357,-0.22388 h -2.159113 -2.159112 l 0.02271,-1.805971 c 0.02518,-2.002003 0.05067,-2.155611 0.421885,-2.542322 0.444406,-0.462957 0.857134,-0.5472297 2.680067,-0.5472297 h 1.36217 V 8.0154634 c 0,-1.0816442 -0.02286,-1.9807547 -0.0508,-1.9980234 C 26.022747,6.000171 25.254856,5.954577 24.344266,5.9161186 22.456693,5.8363986 21.674364,5.8848256 20.811817,6.1347819 19.079183,6.6368795 17.95346,7.730541 17.382308,9.4666134 17.13758,10.21049 17.087058,10.796222 17.086804,12.892537 l -2.4e-4,1.985075 h -1.910448 -1.910447 v 2.208955 2.208955 h 1.910447 1.910448 v 4.865672 4.865671 H 10.071642 3.0567164 Z"
     id="path904"
     inkscape:connector-curvature="0" />
  <path
     style="opacity:0;fill:#000000;fill-opacity:1;stroke:#4d4d4d;stroke-width:0.05970149;stroke-opacity:0"
     d="M 2.490159,31.882076 C 1.7510285,31.741127 0.89641869,31.104317 0.53525084,30.425381 0.16810549,29.735209 0.19097742,30.696763 0.19175337,15.984471 0.19251467,1.5498362 0.17608977,2.3319827 0.49269564,1.653731 0.67402125,1.2652847 1.3846879,0.55461797 1.7731343,0.37329236 2.451353,0.05670193 1.6715697,0.07311138 16.074024,0.07235008 c 11.852712,-6.2652e-4 13.446063,0.0098912 13.756725,0.09080837 1.063649,0.27704551 1.921268,1.19392385 2.116487,2.26273135 0.04523,0.2476346 0.06444,4.3442526 0.06382,13.6119402 -9.73e-4,14.617439 0.02453,13.63578 -0.373745,14.384789 -0.38187,0.718154 -1.205364,1.321411 -2.006656,1.46999 -0.427102,0.07919 -26.7234818,0.06899 -27.140498,-0.01053 z M 17.086567,24.161194 V 19.235821 H 15.20597 13.325373 v -2.149254 -2.149254 h 1.874487 1.874488 l 0.02852,-2.164179 c 0.02475,-1.878496 0.04432,-2.235107 0.148226,-2.701493 0.478362,-2.1471864 1.729691,-3.4531523 3.819096,-3.9858491 0.487193,-0.1242103 0.653313,-0.1335134 2.374586,-0.1329817 1.017911,3.164e-4 2.032454,0.022641 2.254541,0.049615 l 0.403795,0.049043 -0.01573,1.9503856 -0.01573,1.9503851 -1.611941,0.030359 c -1.532899,0.02887 -1.62733,0.037291 -1.925807,0.1717181 -0.342274,0.154152 -0.613972,0.424506 -0.774123,0.770294 -0.08872,0.191563 -0.105431,0.47902 -0.123067,2.117181 l -0.02041,1.895522 h 2.123194 c 1.657474,0 2.12372,0.01637 2.125592,0.07463 0.0013,0.04105 -0.112209,1.008209 -0.252285,2.149254 l -0.254684,2.074627 h -1.867118 -1.867117 v 4.925821 4.925822 l 3.746268,-0.01537 3.746269,-0.01537 0.01506,-13.059701 0.01506,-13.0597019 H 16.101627 3.0567164 V 16.01194 29.086567 h 7.0149256 7.014925 z"
     id="path906"
     inkscape:connector-curvature="0" />
</svg>
