<?xml version="1.0" encoding="UTF-8" standalone="no"?>
<svg
   xmlns:dc="http://purl.org/dc/elements/1.1/"
   xmlns:cc="http://creativecommons.org/ns#"
   xmlns:rdf="http://www.w3.org/1999/02/22-rdf-syntax-ns#"
   xmlns:svg="http://www.w3.org/2000/svg"
   xmlns="http://www.w3.org/2000/svg"
   xmlns:sodipodi="http://sodipodi.sourceforge.net/DTD/sodipodi-0.dtd"
   xmlns:inkscape="http://www.inkscape.org/namespaces/inkscape"
   enable-background="new 0 0 512 512"
   id="Layer_1"
   version="1.1"
   viewBox="0 0 512 512"
   xml:space="preserve"
   sodipodi:docname="instagram_icon.svg"
   inkscape:version="0.92.4 (5da689c313, 2019-01-14)"><metadata
     id="metadata2079"><rdf:RDF><cc:Work
         rdf:about=""><dc:format>image/svg+xml</dc:format><dc:type
           rdf:resource="http://purl.org/dc/dcmitype/StillImage" /></cc:Work></rdf:RDF></metadata><defs
     id="defs2077" /><sodipodi:namedview
     pagecolor="#ffffff"
     bordercolor="#666666"
     borderopacity="1"
     objecttolerance="10"
     gridtolerance="10"
     guidetolerance="10"
     inkscape:pageopacity="0"
     inkscape:pageshadow="2"
     inkscape:window-width="1366"
     inkscape:window-height="705"
     id="namedview2075"
     showgrid="false"
     inkscape:zoom="0.4609375"
     inkscape:cx="256"
     inkscape:cy="256"
     inkscape:window-x="-8"
     inkscape:window-y="-8"
     inkscape:window-maximized="1"
     inkscape:current-layer="Layer_1" /><g
     id="g2072"
     transform="matrix(0.79010936,0,0,0.78148933,58.316785,56.175343)"><path
       d="m 505,257 c 0,34.8 -0.7,69.7 0.2,104.5 1.5,61.6 -37.2,109.2 -86.5,130.4 -19.8,8.5 -40.6,13 -62.1,13 -67.3,0.1 -134.7,1 -202,-0.3 -50.7,-1 -92.4,-22.2 -122.3,-64 -15.7,-22 -23.2,-47 -23.2,-74.1 0,-71.7 0,-143.3 0,-215 C 9.1,93 37.6,52.1 88.2,25.5 110.2,14 134.1,9.1 159,9 c 65.3,0 130.7,-0.4 196,0.2 50.7,0.4 93,19.8 124.2,60.6 17.4,22.8 25.8,49 25.8,77.8 0,36.4 0,72.9 0,109.4 z m -459,0 c 0,36.7 0,73.3 0,110 0,16.4 3.8,31.8 12.3,45.7 22.3,36.5 56,54.3 97.8,55 67.1,1 134.3,0.4 201.5,0.2 16.5,0 32.5,-3.4 47.4,-10.5 40.6,-19.4 63.3,-50.3 63.1,-96.7 -0.4,-71 -0.1,-142 -0.1,-213 0,-20.1 -5.7,-38.5 -17.6,-54.7 -23,-31.1 -54.8,-46.4 -92.8,-46.8 -67,-0.8 -134,-0.3 -201,-0.2 -14.3,0 -28.1,2.9 -41.5,7.9 -36.8,13.7 -71,48.4 -69.4,99.5 C 46.9,188 46,222.5 46,257 Z"
       id="path2066"
       inkscape:connector-curvature="0"
       style="fill:#ffffff;fill-opacity:1" /><path
       d="M 257.6,363 C 193.1,363 141.1,311.6 141,247.6 140.9,184.6 193.3,133 257.4,133 c 64.3,-0.1 116.5,51.4 116.6,114.9 0,63.4 -52.1,115 -116.4,115.1 z m 0,-37 c 43.9,0 79.5,-35.1 79.4,-78.3 -0.1,-42.8 -35.7,-77.8 -79.4,-77.8 -43.9,0 -79.7,34.9 -79.7,78 0.1,43.2 35.8,78.2 79.7,78.1 z"
       id="path2068"
       inkscape:connector-curvature="0"
       style="fill:#ffffff;fill-opacity:1" /><path
       d="M 387.5,98 C 401,98 412,109.5 412,123.6 411.9,137.7 400.8,149.1 387.3,149 374,148.9 363.1,137.5 363.1,123.7 363,109.6 374,98 387.5,98 Z"
       id="path2070"
       inkscape:connector-curvature="0"
       style="fill:#ffffff;fill-opacity:1" /></g><path
     style="color:#000000;line-height:normal;font-family:'Bitstream Vera Sans';-inkscape-font-specification:'Bitstream Vera Sans';text-indent:0;text-align:start;text-transform:none;overflow:visible;stroke-width:23.33243179;fill:#ffffff;fill-opacity:1"
     d="m 48.189811,-2.8411268 c -25.50243,0 -46.6621093,21.1622838 -46.6621093,46.6675808 V 463.83456 c 0,25.50547 21.1596793,46.66759 46.6621093,46.66759 H 468.1492 c 25.5022,0 46.6621,-21.16212 46.6621,-46.66759 V 43.826454 c 0,-25.505297 -21.1599,-46.6675808 -46.6621,-46.6675808 z m 0,46.6675808 H 468.1492 V 463.83456 c 27.6151,-3.43034 65.2817,-2.94815 -419.959389,0 z"
     overflow="visible"
     id="path825"
     inkscape:connector-curvature="0"
     sodipodi:nodetypes="sssssssssccccc" /></svg>