<?xml version="1.0" encoding="UTF-8" standalone="no"?>
<!-- Created with Inkscape (http://www.inkscape.org/) -->

<svg
   xmlns:dc="http://purl.org/dc/elements/1.1/"
   xmlns:cc="http://creativecommons.org/ns#"
   xmlns:rdf="http://www.w3.org/1999/02/22-rdf-syntax-ns#"
   xmlns:svg="http://www.w3.org/2000/svg"
   xmlns="http://www.w3.org/2000/svg"
   xmlns:sodipodi="http://sodipodi.sourceforge.net/DTD/sodipodi-0.dtd"
   xmlns:inkscape="http://www.inkscape.org/namespaces/inkscape"
   width="50"
   height="50"
   viewBox="0 0 13.229166 13.229167"
   version="1.1"
   id="svg8"
   inkscape:version="0.92.4 (5da689c313, 2019-01-14)"
   sodipodi:docname="removet.svg">
  <defs
     id="defs2" />
  <sodipodi:namedview
     id="base"
     pagecolor="#ffffff"
     bordercolor="#666666"
     borderopacity="1.0"
     inkscape:pageopacity="0.0"
     inkscape:pageshadow="2"
     inkscape:zoom="7.9195959"
     inkscape:cx="26.528908"
     inkscape:cy="20.647052"
     inkscape:document-units="mm"
     inkscape:current-layer="layer1"
     showgrid="false"
     units="px"
     inkscape:window-width="1366"
     inkscape:window-height="705"
     inkscape:window-x="-8"
     inkscape:window-y="-8"
     inkscape:window-maximized="1" />
  <metadata
     id="metadata5">
    <rdf:RDF>
      <cc:Work
         rdf:about="">
        <dc:format>image/svg+xml</dc:format>
        <dc:type
           rdf:resource="http://purl.org/dc/dcmitype/StillImage" />
        <dc:title />
      </cc:Work>
    </rdf:RDF>
  </metadata>
  <g
     inkscape:label="Layer 1"
     inkscape:groupmode="layer"
     id="layer1"
     transform="translate(0,-283.77082)">
    <rect
       style="opacity:0;fill:#000000;fill-opacity:1;stroke:#ffffc5;stroke-width:0;stroke-miterlimit:4;stroke-dasharray:none;stroke-opacity:1"
       id="rect815"
       width="4.9778948"
       height="4.7440343"
       x="1.6036172"
       y="286.10876" />
    <rect
       style="opacity:0;fill:#000000;fill-opacity:1;stroke:#ffffc5;stroke-width:0;stroke-miterlimit:4;stroke-dasharray:none;stroke-opacity:1"
       id="rect819"
       width="3.8085907"
       height="7.2830896"
       x="2.0713389"
       y="287.11102" />
    <path
       style="fill:#fffffe;stroke:#ffffff;stroke-width:0.26458332px;stroke-linecap:butt;stroke-linejoin:miter;stroke-opacity:1;fill-opacity:0.97237569"
       d="m 1.1016967,293.68786 c -0.32270942,0.90536 -0.55307323,1.77144 0.1621612,2.39081 0.7419132,0.72836 1.6272275,0.57934 2.5668564,0.29529 l 2.9247781,-2.96356 2.7904328,2.76311 c 0.4245693,0.27354 1.0899488,0.56432 2.5618198,-0.057 0.264964,-0.59099 0.827471,-1.19927 0.316541,-2.39374 l -2.7825384,-3.31169 2.9732044,-3.66367 c 0.481494,-0.96369 0.483128,-1.82455 -0.281111,-2.52129 -1.118696,-0.63387 -1.961868,-0.37229 -2.7268364,0.14345 l -2.7953063,2.92416 -3.1146248,-2.72371 c -0.9293904,-0.52198 -1.8568965,-0.90141 -2.73494294,-0.15315 -0.7825301,0.82317 -0.66694233,1.81731 -0.26524292,2.42511 l 3.51982506,3.57815 z"
       id="path838"
       inkscape:connector-curvature="0"
       sodipodi:nodetypes="ccccccccccccccccc" />
    <path
       style="opacity:0;fill:#000000;fill-opacity:0.97237567;stroke:#000000;stroke-width:0;stroke-miterlimit:4;stroke-dasharray:none;stroke-opacity:1"
       d="m 39.37092,47.870474 c -0.788918,-0.216291 -1.457476,-0.509431 -2.292214,-1.005054 -0.469371,-0.278687 -2.189213,-2.035893 -6.182262,-6.316573 -3.042596,-3.261763 -5.574921,-5.930478 -5.627388,-5.930478 -0.05247,0 -2.565062,2.821668 -5.583544,6.270373 l -5.488149,6.270371 -0.728991,0.211924 C 10.676987,48.182514 8.2577695,48.126028 6.5523301,47.209553 5.6898867,46.74609 4.3175012,45.36787 3.9474751,44.593625 3.3382059,43.318785 3.4673589,41.21707 4.3077036,38.731608 l 0.3387745,-1.001983 5.1770318,-5.785168 c 2.8473671,-3.181842 5.3877761,-6.016486 5.6453521,-6.29921 l 0.46832,-0.514042 -6.4224855,-6.901909 C 5.9823294,14.433247 2.9779811,11.141445 2.838367,10.914182 1.7166519,9.0882609 1.7454411,6.2589622 2.9058844,4.2788155 4.0636608,2.3032195 6.2326843,1.1631795 8.3513724,1.4166641 9.3848599,1.5403128 11.163688,2.1492246 12.493826,2.8346701 l 1.155088,0.5952385 5.647495,6.1240499 c 3.106123,3.3682275 5.71618,6.1977355 5.800129,6.2877945 0.122137,0.131028 1.305707,-1.184923 5.923736,-6.586305 l 5.771103,-6.7500495 1.289547,-0.6470509 c 2.208249,-1.10802381 4.091908,-1.28222371 6.227566,-0.5759226 1.522233,0.5034301 2.163069,0.9078874 2.837899,1.7911122 1.437936,1.8819877 1.610426,4.0707761 0.539581,6.8469181 -0.348238,0.9027977 -0.57824,1.1780517 -6.737135,8.0626657 -3.507123,3.920378 -6.390475,7.164719 -6.407448,7.209648 -0.01697,0.04493 2.617727,2.865922 5.854889,6.268873 3.237161,3.402951 5.991671,6.356842 6.121134,6.5642 0.129462,0.207359 0.357398,0.905027 0.506524,1.550374 0.21963,0.950453 0.25832,1.418551 0.203662,2.464038 -0.07803,1.492609 -0.278563,2.306482 -0.965392,3.918177 -0.563889,1.323201 -0.53186,1.300245 -2.520072,1.80623 -1.365526,0.347515 -3.317287,0.394761 -4.371212,0.105813 z"
       id="path840"
       inkscape:connector-curvature="0"
       transform="matrix(0.26458333,0,0,0.26458333,0,283.77082)" />
    <path
       style="opacity:0;fill:#000000;fill-opacity:0.97237567;stroke:#000000;stroke-width:0;stroke-miterlimit:4;stroke-dasharray:none;stroke-opacity:1"
       d="m 39.37092,47.870474 c -0.788918,-0.216291 -1.457476,-0.509431 -2.292214,-1.005054 -0.469371,-0.278687 -2.189213,-2.035893 -6.182262,-6.316573 -3.042596,-3.261763 -5.574921,-5.930478 -5.627388,-5.930478 -0.05247,0 -2.565062,2.821668 -5.583544,6.270373 l -5.488149,6.270371 -0.728991,0.211924 C 10.676987,48.182514 8.2577695,48.126028 6.5523301,47.209553 5.6898867,46.74609 4.3175012,45.36787 3.9474751,44.593625 3.3382059,43.318785 3.4673589,41.21707 4.3077036,38.731608 l 0.3387745,-1.001983 5.1770318,-5.785168 c 2.8473671,-3.181842 5.3877761,-6.016486 5.6453521,-6.29921 l 0.46832,-0.514042 -6.4224855,-6.901909 C 5.9823294,14.433247 2.9779811,11.141445 2.838367,10.914182 1.7166519,9.0882609 1.7454411,6.2589622 2.9058844,4.2788155 4.0636608,2.3032195 6.2326843,1.1631795 8.3513724,1.4166641 9.3848599,1.5403128 11.163688,2.1492246 12.493826,2.8346701 l 1.155088,0.5952385 5.647495,6.1240499 c 3.106123,3.3682275 5.71618,6.1977355 5.800129,6.2877945 0.122137,0.131028 1.305707,-1.184923 5.923736,-6.586305 l 5.771103,-6.7500495 1.289547,-0.6470509 c 2.208249,-1.10802381 4.091908,-1.28222371 6.227566,-0.5759226 1.522233,0.5034301 2.163069,0.9078874 2.837899,1.7911122 1.437936,1.8819877 1.610426,4.0707761 0.539581,6.8469181 -0.348238,0.9027977 -0.57824,1.1780517 -6.737135,8.0626657 -3.507123,3.920378 -6.390475,7.164719 -6.407448,7.209648 -0.01697,0.04493 2.617727,2.865922 5.854889,6.268873 3.237161,3.402951 5.991671,6.356842 6.121134,6.5642 0.129462,0.207359 0.357398,0.905027 0.506524,1.550374 0.21963,0.950453 0.25832,1.418551 0.203662,2.464038 -0.07803,1.492609 -0.278563,2.306482 -0.965392,3.918177 -0.563889,1.323201 -0.53186,1.300245 -2.520072,1.80623 -1.365526,0.347515 -3.317287,0.394761 -4.371212,0.105813 z"
       id="path842"
       inkscape:connector-curvature="0"
       transform="matrix(0.26458333,0,0,0.26458333,0,283.77082)" />
    <path
       style="opacity:0;fill:#000000;fill-opacity:0.97237567;stroke:#000000;stroke-width:0;stroke-miterlimit:4;stroke-dasharray:none;stroke-opacity:1"
       d="m 39.37092,47.870474 c -0.788918,-0.216291 -1.457476,-0.509431 -2.292214,-1.005054 -0.469371,-0.278687 -2.189213,-2.035893 -6.182262,-6.316573 -3.042596,-3.261763 -5.574921,-5.930478 -5.627388,-5.930478 -0.05247,0 -2.565062,2.821668 -5.583544,6.270373 l -5.488149,6.270371 -0.728991,0.211924 C 10.676987,48.182514 8.2577695,48.126028 6.5523301,47.209553 5.6898867,46.74609 4.3175012,45.36787 3.9474751,44.593625 3.3382059,43.318785 3.4673589,41.21707 4.3077036,38.731608 l 0.3387745,-1.001983 5.1770318,-5.785168 c 2.8473671,-3.181842 5.3877761,-6.016486 5.6453521,-6.29921 l 0.46832,-0.514042 -6.4224855,-6.901909 C 5.9823294,14.433247 2.9779811,11.141445 2.838367,10.914182 1.7166519,9.0882609 1.7454411,6.2589622 2.9058844,4.2788155 4.0636608,2.3032195 6.2326843,1.1631795 8.3513724,1.4166641 9.3848599,1.5403128 11.163688,2.1492246 12.493826,2.8346701 l 1.155088,0.5952385 5.647495,6.1240499 c 3.106123,3.3682275 5.71618,6.1977355 5.800129,6.2877945 0.122137,0.131028 1.305707,-1.184923 5.923736,-6.586305 l 5.771103,-6.7500495 1.289547,-0.6470509 c 2.208249,-1.10802381 4.091908,-1.28222371 6.227566,-0.5759226 1.522233,0.5034301 2.163069,0.9078874 2.837899,1.7911122 1.437936,1.8819877 1.610426,4.0707761 0.539581,6.8469181 -0.348238,0.9027977 -0.57824,1.1780517 -6.737135,8.0626657 -3.507123,3.920378 -6.390475,7.164719 -6.407448,7.209648 -0.01697,0.04493 2.617727,2.865922 5.854889,6.268873 3.237161,3.402951 5.991671,6.356842 6.121134,6.5642 0.129462,0.207359 0.357398,0.905027 0.506524,1.550374 0.21963,0.950453 0.25832,1.418551 0.203662,2.464038 -0.07803,1.492609 -0.278563,2.306482 -0.965392,3.918177 -0.563889,1.323201 -0.53186,1.300245 -2.520072,1.80623 -1.365526,0.347515 -3.317287,0.394761 -4.371212,0.105813 z"
       id="path844"
       inkscape:connector-curvature="0"
       transform="matrix(0.26458333,0,0,0.26458333,0,283.77082)" />
    <path
       style="opacity:0;fill:#000000;fill-opacity:0.97237567;stroke:#000000;stroke-width:0;stroke-miterlimit:4;stroke-dasharray:none;stroke-opacity:1"
       d="m 39.37092,47.870474 c -0.788918,-0.216291 -1.457476,-0.509431 -2.292214,-1.005054 -0.469371,-0.278687 -2.189213,-2.035893 -6.182262,-6.316573 -3.042596,-3.261763 -5.574921,-5.930478 -5.627388,-5.930478 -0.05247,0 -2.565062,2.821668 -5.583544,6.270373 l -5.488149,6.270371 -0.728991,0.211924 C 10.676987,48.182514 8.2577695,48.126028 6.5523301,47.209553 5.6898867,46.74609 4.3175012,45.36787 3.9474751,44.593625 3.3382059,43.318785 3.4673589,41.21707 4.3077036,38.731608 l 0.3387745,-1.001983 5.1770318,-5.785168 c 2.8473671,-3.181842 5.3877761,-6.016486 5.6453521,-6.29921 l 0.46832,-0.514042 -6.4224855,-6.901909 C 5.9823294,14.433247 2.9779811,11.141445 2.838367,10.914182 1.7166519,9.0882609 1.7454411,6.2589622 2.9058844,4.2788155 4.0636608,2.3032195 6.2326843,1.1631795 8.3513724,1.4166641 9.3848599,1.5403128 11.163688,2.1492246 12.493826,2.8346701 l 1.155088,0.5952385 5.647495,6.1240499 c 3.106123,3.3682275 5.71618,6.1977355 5.800129,6.2877945 0.122137,0.131028 1.305707,-1.184923 5.923736,-6.586305 l 5.771103,-6.7500495 1.289547,-0.6470509 c 2.208249,-1.10802381 4.091908,-1.28222371 6.227566,-0.5759226 1.522233,0.5034301 2.163069,0.9078874 2.837899,1.7911122 1.437936,1.8819877 1.610426,4.0707761 0.539581,6.8469181 -0.348238,0.9027977 -0.57824,1.1780517 -6.737135,8.0626657 -3.507123,3.920378 -6.390475,7.164719 -6.407448,7.209648 -0.01697,0.04493 2.617727,2.865922 5.854889,6.268873 3.237161,3.402951 5.991671,6.356842 6.121134,6.5642 0.129462,0.207359 0.357398,0.905027 0.506524,1.550374 0.21963,0.950453 0.25832,1.418551 0.203662,2.464038 -0.07803,1.492609 -0.278563,2.306482 -0.965392,3.918177 -0.563889,1.323201 -0.53186,1.300245 -2.520072,1.80623 -1.365526,0.347515 -3.317287,0.394761 -4.371212,0.105813 z"
       id="path846"
       inkscape:connector-curvature="0"
       transform="matrix(0.26458333,0,0,0.26458333,0,283.77082)" />
    <path
       style="opacity:0;fill:#000000;fill-opacity:0.97237567;stroke:#000000;stroke-width:0;stroke-miterlimit:4;stroke-dasharray:none;stroke-opacity:1"
       d="m 39.37092,47.870474 c -0.788918,-0.216291 -1.457476,-0.509431 -2.292214,-1.005054 -0.469371,-0.278687 -2.189213,-2.035893 -6.182262,-6.316573 -3.042596,-3.261763 -5.574921,-5.930478 -5.627388,-5.930478 -0.05247,0 -2.565062,2.821668 -5.583544,6.270373 l -5.488149,6.270371 -0.728991,0.211924 C 10.676987,48.182514 8.2577695,48.126028 6.5523301,47.209553 5.6898867,46.74609 4.3175012,45.36787 3.9474751,44.593625 3.3382059,43.318785 3.4673589,41.21707 4.3077036,38.731608 l 0.3387745,-1.001983 5.1770318,-5.785168 c 2.8473671,-3.181842 5.3877761,-6.016486 5.6453521,-6.29921 l 0.46832,-0.514042 -6.4224855,-6.901909 C 5.9823294,14.433247 2.9779811,11.141445 2.838367,10.914182 1.7166519,9.0882609 1.7454411,6.2589622 2.9058844,4.2788155 4.0636608,2.3032195 6.2326843,1.1631795 8.3513724,1.4166641 9.3848599,1.5403128 11.163688,2.1492246 12.493826,2.8346701 l 1.155088,0.5952385 5.647495,6.1240499 c 3.106123,3.3682275 5.71618,6.1977355 5.800129,6.2877945 0.122137,0.131028 1.305707,-1.184923 5.923736,-6.586305 l 5.771103,-6.7500495 1.289547,-0.6470509 c 2.208249,-1.10802381 4.091908,-1.28222371 6.227566,-0.5759226 1.522233,0.5034301 2.163069,0.9078874 2.837899,1.7911122 1.437936,1.8819877 1.610426,4.0707761 0.539581,6.8469181 -0.348238,0.9027977 -0.57824,1.1780517 -6.737135,8.0626657 -3.507123,3.920378 -6.390475,7.164719 -6.407448,7.209648 -0.01697,0.04493 2.617727,2.865922 5.854889,6.268873 3.237161,3.402951 5.991671,6.356842 6.121134,6.5642 0.129462,0.207359 0.357398,0.905027 0.506524,1.550374 0.21963,0.950453 0.25832,1.418551 0.203662,2.464038 -0.07803,1.492609 -0.278563,2.306482 -0.965392,3.918177 -0.563889,1.323201 -0.53186,1.300245 -2.520072,1.80623 -1.365526,0.347515 -3.317287,0.394761 -4.371212,0.105813 z"
       id="path848"
       inkscape:connector-curvature="0"
       transform="matrix(0.26458333,0,0,0.26458333,0,283.77082)" />
    <path
       style="opacity:0;fill:#000000;fill-opacity:0.97237567;stroke:#000000;stroke-width:0;stroke-miterlimit:4;stroke-dasharray:none;stroke-opacity:1"
       d="m 39.37092,47.870474 c -0.788918,-0.216291 -1.457476,-0.509431 -2.292214,-1.005054 -0.469371,-0.278687 -2.189213,-2.035893 -6.182262,-6.316573 -3.042596,-3.261763 -5.574921,-5.930478 -5.627388,-5.930478 -0.05247,0 -2.565062,2.821668 -5.583544,6.270373 l -5.488149,6.270371 -0.728991,0.211924 C 10.676987,48.182514 8.2577695,48.126028 6.5523301,47.209553 5.6898867,46.74609 4.3175012,45.36787 3.9474751,44.593625 3.3382059,43.318785 3.4673589,41.21707 4.3077036,38.731608 l 0.3387745,-1.001983 5.1770318,-5.785168 c 2.8473671,-3.181842 5.3877761,-6.016486 5.6453521,-6.29921 l 0.46832,-0.514042 -6.4224855,-6.901909 C 5.9823294,14.433247 2.9779811,11.141445 2.838367,10.914182 1.7166519,9.0882609 1.7454411,6.2589622 2.9058844,4.2788155 4.0636608,2.3032195 6.2326843,1.1631795 8.3513724,1.4166641 9.3848599,1.5403128 11.163688,2.1492246 12.493826,2.8346701 l 1.155088,0.5952385 5.647495,6.1240499 c 3.106123,3.3682275 5.71618,6.1977355 5.800129,6.2877945 0.122137,0.131028 1.305707,-1.184923 5.923736,-6.586305 l 5.771103,-6.7500495 1.289547,-0.6470509 c 2.208249,-1.10802381 4.091908,-1.28222371 6.227566,-0.5759226 1.522233,0.5034301 2.163069,0.9078874 2.837899,1.7911122 1.437936,1.8819877 1.610426,4.0707761 0.539581,6.8469181 -0.348238,0.9027977 -0.57824,1.1780517 -6.737135,8.0626657 -3.507123,3.920378 -6.390475,7.164719 -6.407448,7.209648 -0.01697,0.04493 2.617727,2.865922 5.854889,6.268873 3.237161,3.402951 5.991671,6.356842 6.121134,6.5642 0.129462,0.207359 0.357398,0.905027 0.506524,1.550374 0.21963,0.950453 0.25832,1.418551 0.203662,2.464038 -0.07803,1.492609 -0.278563,2.306482 -0.965392,3.918177 -0.563889,1.323201 -0.53186,1.300245 -2.520072,1.80623 -1.365526,0.347515 -3.317287,0.394761 -4.371212,0.105813 z"
       id="path850"
       inkscape:connector-curvature="0"
       transform="matrix(0.26458333,0,0,0.26458333,0,283.77082)" />
    <path
       style="opacity:0;fill:#000000;fill-opacity:0.97237569;stroke:#000000;stroke-width:0;stroke-miterlimit:4;stroke-dasharray:none;stroke-opacity:1"
       d="m 39.37092,47.870474 c -0.788918,-0.216291 -1.457476,-0.509431 -2.292214,-1.005054 -0.469371,-0.278687 -2.189213,-2.035893 -6.182262,-6.316573 -3.042596,-3.261763 -5.574921,-5.930478 -5.627388,-5.930478 -0.05247,0 -2.565062,2.821668 -5.583544,6.270373 l -5.488149,6.270371 -0.728991,0.211924 C 10.676987,48.182514 8.2577695,48.126028 6.5523301,47.209553 5.6898867,46.74609 4.3175012,45.36787 3.9474751,44.593625 3.3382059,43.318785 3.4673589,41.21707 4.3077036,38.731608 l 0.3387745,-1.001983 5.1770318,-5.785168 c 2.8473671,-3.181842 5.3877761,-6.016486 5.6453521,-6.29921 l 0.46832,-0.514042 -6.4224855,-6.901909 C 5.9823294,14.433247 2.9779811,11.141445 2.838367,10.914182 1.7166519,9.0882609 1.7454411,6.2589622 2.9058844,4.2788155 4.0636608,2.3032195 6.2326843,1.1631795 8.3513724,1.4166641 9.3848599,1.5403128 11.163688,2.1492246 12.493826,2.8346701 l 1.155088,0.5952385 5.647495,6.1240499 c 3.106123,3.3682275 5.71618,6.1977355 5.800129,6.2877945 0.122137,0.131028 1.305707,-1.184923 5.923736,-6.586305 l 5.771103,-6.7500495 1.289547,-0.6470509 c 2.208249,-1.10802381 4.091908,-1.28222371 6.227566,-0.5759226 1.522233,0.5034301 2.163069,0.9078874 2.837899,1.7911122 1.437936,1.8819877 1.610426,4.0707761 0.539581,6.8469181 -0.348238,0.9027977 -0.57824,1.1780517 -6.737135,8.0626657 -3.507123,3.920378 -6.390475,7.164719 -6.407448,7.209648 -0.01697,0.04493 2.617727,2.865922 5.854889,6.268873 3.237161,3.402951 5.991671,6.356842 6.121134,6.5642 0.129462,0.207359 0.357398,0.905027 0.506524,1.550374 0.21963,0.950453 0.25832,1.418551 0.203662,2.464038 -0.07803,1.492609 -0.278563,2.306482 -0.965392,3.918177 -0.563889,1.323201 -0.53186,1.300245 -2.520072,1.80623 -1.365526,0.347515 -3.317287,0.394761 -4.371212,0.105813 z"
       id="path852"
       inkscape:connector-curvature="0"
       transform="matrix(0.26458333,0,0,0.26458333,0,283.77082)" />
  </g>
</svg>
