<?xml version="1.0" encoding="UTF-8" standalone="no"?>
<svg
   xmlns:dc="http://purl.org/dc/elements/1.1/"
   xmlns:cc="http://creativecommons.org/ns#"
   xmlns:rdf="http://www.w3.org/1999/02/22-rdf-syntax-ns#"
   xmlns:svg="http://www.w3.org/2000/svg"
   xmlns="http://www.w3.org/2000/svg"
   xmlns:sodipodi="http://sodipodi.sourceforge.net/DTD/sodipodi-0.dtd"
   xmlns:inkscape="http://www.inkscape.org/namespaces/inkscape"
   version="1.1"
   x="0px"
   y="0px"
   viewBox="0 0 1000 1000"
   enable-background="new 0 0 1000 1000"
   xml:space="preserve"
   id="svg1485"
   sodipodi:docname="telegram_icon.svg"
   inkscape:version="0.92.4 (5da689c313, 2019-01-14)"><metadata
   id="metadata1491"><rdf:RDF><cc:Work
       rdf:about=""><dc:format>image/svg+xml</dc:format><dc:type
         rdf:resource="http://purl.org/dc/dcmitype/StillImage" /></cc:Work></rdf:RDF></metadata><defs
   id="defs1489" /><sodipodi:namedview
   pagecolor="#ffffff"
   bordercolor="#666666"
   borderopacity="1"
   objecttolerance="10"
   gridtolerance="10"
   guidetolerance="10"
   inkscape:pageopacity="0"
   inkscape:pageshadow="2"
   inkscape:window-width="1366"
   inkscape:window-height="705"
   id="namedview1487"
   showgrid="false"
   inkscape:zoom="0.236"
   inkscape:cx="-188.55932"
   inkscape:cy="500"
   inkscape:window-x="-8"
   inkscape:window-y="-8"
   inkscape:window-maximized="1"
   inkscape:current-layer="svg1485" />
<g
   id="g1483"
   transform="matrix(0.78381287,0,0,0.76032935,103.85596,136.79646)"><g
     id="g1451"><path
       d="M 971.9,55.5 C 955.9,34.6 931.2,22.7 904,22.7 c -17.6,0 -35.8,4.9 -54.1,14.5 L 68.6,446.9 C 13,476 9.2,520 10.1,537.5 c 0.9,17.6 9.4,60.8 67.6,84 l 99.8,39.5 c 18.9,7.5 40.1,11.4 62.9,11.4 3.6,0 7.1,-0.5 10.6,-0.7 -1.4,1.8 -3,3.1 -4.3,5 -18.6,27.8 -19.5,65.6 -2.7,106.2 0.3,0.7 0.5,1.3 0.8,1.9 29.5,65.4 62.4,139.3 66.3,149.5 9.8,25.5 34.7,43.1 62.1,43.1 42.1,0 54.6,-20.3 123.6,-132.5 5.4,-8.2 17.3,-27.4 19.3,-51.7 8.1,3.3 15.6,6.3 22.1,8.9 L 649,847 c 22.2,9 41.6,17 51.8,21.3 3.2,1.9 6.5,3.6 10,5 7.8,3.1 16.1,4.7 24.5,4.7 50.3,0 62.4,-43.6 68.8,-66.9 3.2,-11.5 7.6,-27.5 12.4,-45.2 l 168.7,-620 C 998,99.1 982.3,69.2 971.9,55.5 Z M 441.3,809.4 c 0,0 -62.6,101.9 -67.9,101.9 -0.1,0 -0.2,-0.1 -0.3,-0.2 -6.1,-16.5 -68,-153.6 -68,-153.6 -11.4,-27.5 -9.3,-51 10.3,-51 4.3,0 9.5,1.1 15.5,3.6 l 48,25 c 8,5.5 16.8,10.2 26.4,14 l 2.4,0.9 4.5,2.3 c 37.1,19.7 48.9,26.8 29.1,57.1 z M 921.6,128.6 753,748.5 c -9.5,34.9 -17.5,63.5 -17.6,63.5 -0.1,-0.1 -0.3,-0.7 -0.3,-0.8 0,-0.2 -27.5,-11.5 -61.1,-25.2 L 563.3,740.9 C 529.7,727.3 474.6,705.3 440.8,692.2 L 435.2,690 414.5,679.3 C 394,663.6 392.2,637.7 412.8,615.8 L 755.2,249 c 13.8,-14.7 18.9,-22.2 16,-22.2 -2.4,0 -10,4.9 -22.7,14.9 L 315.2,583.4 c -18.9,14.7 -47.6,23 -74.6,23 -13.8,0 -27.3,-2.2 -38.7,-6.7 l -99.8,-39.5 c -33.7,-13.3 -35,-38 -2.9,-54.9 L 880.5,95.6 c 9,-4.7 16.9,-6.9 23.5,-6.9 16.8,0 24.5,14.7 17.6,39.9 z"
       id="path1449"
       inkscape:connector-curvature="0"
       style="fill-opacity:1;fill:#ffffff" /></g><g
     id="g1453" /><g
     id="g1455" /><g
     id="g1457" /><g
     id="g1459" /><g
     id="g1461" /><g
     id="g1463" /><g
     id="g1465" /><g
     id="g1467" /><g
     id="g1469" /><g
     id="g1471" /><g
     id="g1473" /><g
     id="g1475" /><g
     id="g1477" /><g
     id="g1479" /><g
     id="g1481" /></g>
<path
   style="color:#000000;line-height:normal;font-family:'Bitstream Vera Sans';-inkscape-font-specification:'Bitstream Vera Sans';text-indent:0;text-align:start;text-transform:none;overflow:visible;stroke-width:45.28887558;fill:#ffffff;fill-opacity:1"
   d="m 96.260653,6.0402263 c -49.292214,0 -90.1905784,41.2504707 -90.1905784,90.9665127 V 915.70513 c 0,49.71638 40.8983644,90.96647 90.1905784,90.96647 H 907.97663 c 49.29191,0 90.19058,-41.25009 90.19058,-90.96647 V 97.006739 c 0,-49.716042 -40.89867,-90.9665127 -90.19058,-90.9665127 z m 0,90.9665127 H 907.97663 V 915.70513 c 53.3758,-6.68657 126.17937,-5.74667 -811.715977,0 z"
   overflow="visible"
   id="path825"
   inkscape:connector-curvature="0"
   sodipodi:nodetypes="sssssssssccccc" /></svg>