<?xml version="1.0" encoding="UTF-8" standalone="no"?>
<svg
   xmlns:dc="http://purl.org/dc/elements/1.1/"
   xmlns:cc="http://creativecommons.org/ns#"
   xmlns:rdf="http://www.w3.org/1999/02/22-rdf-syntax-ns#"
   xmlns:svg="http://www.w3.org/2000/svg"
   xmlns="http://www.w3.org/2000/svg"
   xmlns:sodipodi="http://sodipodi.sourceforge.net/DTD/sodipodi-0.dtd"
   xmlns:inkscape="http://www.inkscape.org/namespaces/inkscape"
   enable-background="new 0 0 512 512"
   id="Layer_1"
   version="1.1"
   viewBox="0 0 512 512"
   xml:space="preserve"
   sodipodi:docname="youtube_icon.svg"
   inkscape:version="0.92.4 (5da689c313, 2019-01-14)"><metadata
     id="metadata835"><rdf:RDF><cc:Work
         rdf:about=""><dc:format>image/svg+xml</dc:format><dc:type
           rdf:resource="http://purl.org/dc/dcmitype/StillImage" /><dc:title /></cc:Work></rdf:RDF></metadata><defs
     id="defs833" /><sodipodi:namedview
     pagecolor="#ffffff"
     bordercolor="#666666"
     borderopacity="1"
     objecttolerance="10"
     gridtolerance="10"
     guidetolerance="10"
     inkscape:pageopacity="0"
     inkscape:pageshadow="2"
     inkscape:window-width="1366"
     inkscape:window-height="705"
     id="namedview831"
     showgrid="false"
     inkscape:zoom="1.046875"
     inkscape:cx="100.77612"
     inkscape:cy="256"
     inkscape:window-x="-8"
     inkscape:window-y="-8"
     inkscape:window-maximized="1"
     inkscape:current-layer="Layer_1" /><g
     id="g828"
     transform="matrix(0.43042226,0,0,0.39279591,291.19304,55.798816)"
     style="fill:#ffffff;fill-opacity:1"><path
       d="m -73.038117,821.07428 c -106.226743,-3.14836 -207.244473,-5.59709 -308.262203,-9.27018 -21.76625,-0.87455 -43.90457,-4.02291 -65.11271,-8.74546 -39.81178,-8.74545 -67.34515,-31.30872 -81.48392,-68.21454 -11.34822,-29.73455 -15.44101,-60.34364 -18.41759,-91.47746 -6.51127,-73.112 -6.51127,-146.22401 -3.34866,-219.33601 1.86037,-41.27854 2.97658,-82.90691 14.69687,-122.96109 7.06938,-23.96256 15.62705,-47.40037 36.27708,-64.71636 21.76625,-18.36546 47.25324,-29.38474 76.2749,-30.60911 79.62355,-3.67309 159.06107,-8.22072 238.68462,-8.92036 107.156921,-1.04945 214.499885,0.34982 321.65681,2.27382 46.32305,0.87455 93.01816,3.14836 138.96914,8.74546 42.04421,5.24727 73.48436,27.28582 90.22762,65.76582 12.8365,29.55963 17.67345,60.51855 20.464,92.00219 7.25541,78.88399 7.44145,157.768 3.34866,236.652 -2.04641,40.05418 -4.09281,80.28328 -16.18517,119.28801 -13.76669,44.77672 -42.97439,74.33636 -91.71592,84.48109 -18.9757,3.848 -38.69555,5.24728 -58.04333,5.94691 -101.20376,3.32327 -202.221486,6.29673 -298.030197,9.09527 z M -175.91622,622.20264 C -91.083642,580.92409 -7.1812558,539.99536 78.395457,498.19209 -6.9952201,456.2139 -90.897609,415.11027 -175.91622,373.30699 c 0,83.43165 0,165.46401 0,248.89565 z"
       id="path826"
       inkscape:connector-curvature="0"
       style="stroke-width:1.80386937;fill:#ffffff;fill-opacity:1" /></g><path
     style="color:#000000;line-height:normal;font-family:'Bitstream Vera Sans';-inkscape-font-specification:'Bitstream Vera Sans';text-indent:0;text-align:start;text-transform:none;overflow:visible;stroke-width:23.33243179;fill:#ffffff;fill-opacity:1"
     d="M 47.930775,-0.67163866 C 22.428344,-0.67163866 1.2686604,20.49065 1.2686604,45.995947 V 466.00405 c 0,25.50547 21.1596836,46.66759 46.6621146,46.66759 H 467.89013 c 25.50227,0 46.66211,-21.16212 46.66211,-46.66759 V 45.995947 c 0,-25.505297 -21.15984,-46.66758566 -46.66211,-46.66758566 z m 0,46.66758566 H 467.89013 V 466.00405 c 27.61516,-3.43034 65.28172,-2.94815 -419.959355,0 z"
     overflow="visible"
     id="path825"
     inkscape:connector-curvature="0"
     sodipodi:nodetypes="sssssssssccccc" /></svg>